<svg xmlns="http://www.w3.org/2000/svg" viewBox="0 0 1080 1440" role="img" aria-labelledby="title desc">
  <title id="title">AI办公效率分享会竖版海报示例</title>
  <desc id="desc">深蓝青绿色职场宣传海报，包含办公桌、笔记本电脑、抽象工作流光带和中文活动文字。</desc>
  <defs>
    <linearGradient id="bg" x1="0" y1="0" x2="1" y2="1"><stop stop-color="#071a36"/><stop offset="1" stop-color="#0d6070"/></linearGradient>
    <linearGradient id="glow" x1="0" y1="0" x2="1" y2="1"><stop stop-color="#58f0ca"/><stop offset="1" stop-color="#5ca8ff"/></linearGradient>
    <filter id="blur"><feGaussianBlur stdDeviation="34"/></filter>
  </defs>
  <rect width="1080" height="1440" fill="url(#bg)"/>
  <circle cx="840" cy="270" r="230" fill="#5af0cb" opacity=".16" filter="url(#blur)"/>
  <path d="M80 390 C360 180 470 560 900 260" fill="none" stroke="url(#glow)" stroke-width="12" opacity=".8"/>
  <path d="M160 510 C430 300 600 690 980 390" fill="none" stroke="#8ae9ff" stroke-width="3" opacity=".55"/>
  <text x="88" y="132" fill="#9ef8df" font-size="28" font-family="Arial,Microsoft YaHei,sans-serif" letter-spacing="5">WORK SMARTER WITH AI</text>
  <text x="88" y="250" fill="white" font-size="76" font-weight="700" font-family="Arial,Microsoft YaHei,sans-serif">AI 办公</text>
  <text x="88" y="335" fill="white" font-size="76" font-weight="700" font-family="Arial,Microsoft YaHei,sans-serif">效率分享会</text>
  <text x="92" y="410" fill="#c7d9e8" font-size="30" font-family="Arial,Microsoft YaHei,sans-serif">把重复工作交给合适的工具</text>
  <rect x="82" y="468" width="250" height="68" rx="34" fill="#5af0cb"/>
  <text x="126" y="512" fill="#052238" font-size="28" font-weight="700" font-family="Arial,Microsoft YaHei,sans-serif">线上直播 · 周四 20:00</text>
  <rect x="95" y="940" width="890" height="18" rx="9" fill="#071321" opacity=".8"/>
  <rect x="170" y="710" width="650" height="360" rx="28" fill="#d8f5f1"/>
  <rect x="205" y="748" width="580" height="285" rx="16" fill="#102b4b"/>
  <circle cx="495" cy="885" r="72" fill="url(#glow)" opacity=".95"/>
  <path d="M445 885h100M495 835v100" stroke="#fff" stroke-width="12" stroke-linecap="round" opacity=".9"/>
  <rect x="405" y="1080" width="180" height="22" rx="11" fill="#b6dedb"/>
  <path d="M120 1160 H960 L900 1320 H180 Z" fill="#0a2039"/>
  <rect x="90" y="1335" width="900" height="5" fill="#5af0cb" opacity=".8"/>
  <text x="88" y="1390" fill="#c7d9e8" font-size="22" font-family="Arial,Microsoft YaHei,sans-serif">示例 01 · 先做构图，再添加文字</text>
</svg>
